<svg width="56" height="15" viewBox="0 0 56 15" fill="none" xmlns="http://www.w3.org/2000/svg">
<path d="M10.44 11.81V14.802H0.32V0.876H3.84V11.81H10.44ZM11.546 7.828C11.546 6.05333 11.744 4.64533 12.14 3.604C12.5507 2.56267 13.2473 1.81467 14.23 1.36C15.2273 0.905333 16.6133 0.677999 18.388 0.677999C19.7227 0.677999 20.83 0.802666 21.71 1.052C22.59 1.30133 23.2867 1.70467 23.8 2.262C24.3133 2.81933 24.6727 3.56 24.878 4.484C25.098 5.39333 25.208 6.508 25.208 7.828C25.208 9.16267 25.098 10.292 24.878 11.216C24.6727 12.1253 24.3133 12.8587 23.8 13.416C23.2867 13.9733 22.59 14.3767 21.71 14.626C20.83 14.8753 19.7227 15 18.388 15C17.0533 15 15.946 14.8753 15.066 14.626C14.186 14.3767 13.4893 13.9733 12.976 13.416C12.4627 12.8587 12.096 12.1253 11.876 11.216C11.656 10.292 11.546 9.16267 11.546 7.828ZM18.388 11.92C19.3267 11.92 20.0307 11.8027 20.5 11.568C20.9693 11.3333 21.2847 10.9227 21.446 10.336C21.6073 9.73467 21.688 8.89867 21.688 7.828C21.688 6.772 21.6073 5.95067 21.446 5.364C21.2847 4.77733 20.9693 4.36667 20.5 4.132C20.0307 3.88267 19.3267 3.758 18.388 3.758C17.464 3.758 16.76 3.88267 16.276 4.132C15.8067 4.36667 15.484 4.77733 15.308 5.364C15.1467 5.95067 15.066 6.772 15.066 7.828C15.066 8.89867 15.1467 9.73467 15.308 10.336C15.484 10.9227 15.8067 11.3333 16.276 11.568C16.76 11.8027 17.464 11.92 18.388 11.92ZM36.3218 10.688C36.3218 10.204 36.3438 9.764 36.3878 9.368L36.3438 9.302C35.9331 9.36067 35.4858 9.40467 35.0018 9.434C34.5178 9.44867 34.0705 9.44867 33.6598 9.434V6.574L39.4018 6.552V14.032C38.7271 14.34 37.9571 14.582 37.0918 14.758C36.2411 14.9193 35.1558 15 33.8358 15C32.0758 15 30.6971 14.7653 29.6998 14.296C28.7025 13.812 27.9985 13.042 27.5878 11.986C27.1771 10.9153 26.9718 9.49267 26.9718 7.718C26.9718 6.28067 27.1331 5.1 27.4558 4.176C27.7931 3.252 28.2771 2.54067 28.9078 2.042C29.5531 1.52867 30.3378 1.17667 31.2618 0.985999C32.1858 0.780666 33.2418 0.677999 34.4298 0.677999C35.1338 0.677999 35.8378 0.707333 36.5418 0.766C37.2605 0.824666 37.9718 0.934666 38.6758 1.096V4L38.6098 4.044C37.9938 3.89733 37.3778 3.79467 36.7618 3.736C36.1605 3.67733 35.5518 3.648 34.9358 3.648C34.0411 3.648 33.2565 3.74333 32.5818 3.934C31.9218 4.11 31.4085 4.484 31.0418 5.056C30.6751 5.628 30.4918 6.51533 30.4918 7.718C30.4918 8.906 30.5871 9.81533 30.7778 10.446C30.9831 11.062 31.3571 11.4873 31.8998 11.722C32.4571 11.942 33.2491 12.052 34.2758 12.052C34.4078 12.052 34.6131 12.052 34.8918 12.052C35.1705 12.0373 35.4491 12.0227 35.7278 12.008C36.0065 11.9933 36.2045 11.9713 36.3218 11.942V10.688ZM41.3878 7.828C41.3878 6.05333 41.5858 4.64533 41.9818 3.604C42.3925 2.56267 43.0891 1.81467 44.0718 1.36C45.0691 0.905333 46.4551 0.677999 48.2298 0.677999C49.5645 0.677999 50.6718 0.802666 51.5518 1.052C52.4318 1.30133 53.1285 1.70467 53.6418 2.262C54.1551 2.81933 54.5145 3.56 54.7198 4.484C54.9398 5.39333 55.0498 6.508 55.0498 7.828C55.0498 9.16267 54.9398 10.292 54.7198 11.216C54.5145 12.1253 54.1551 12.8587 53.6418 13.416C53.1285 13.9733 52.4318 14.3767 51.5518 14.626C50.6718 14.8753 49.5645 15 48.2298 15C46.8951 15 45.7878 14.8753 44.9078 14.626C44.0278 14.3767 43.3311 13.9733 42.8178 13.416C42.3045 12.8587 41.9378 12.1253 41.7178 11.216C41.4978 10.292 41.3878 9.16267 41.3878 7.828ZM48.2298 11.92C49.1685 11.92 49.8725 11.8027 50.3418 11.568C50.8111 11.3333 51.1265 10.9227 51.2878 10.336C51.4491 9.73467 51.5298 8.89867 51.5298 7.828C51.5298 6.772 51.4491 5.95067 51.2878 5.364C51.1265 4.77733 50.8111 4.36667 50.3418 4.132C49.8725 3.88267 49.1685 3.758 48.2298 3.758C47.3058 3.758 46.6018 3.88267 46.1178 4.132C45.6485 4.36667 45.3258 4.77733 45.1498 5.364C44.9885 5.95067 44.9078 6.772 44.9078 7.828C44.9078 8.89867 44.9885 9.73467 45.1498 10.336C45.3258 10.9227 45.6485 11.3333 46.1178 11.568C46.6018 11.8027 47.3058 11.92 48.2298 11.92Z" fill="white"/>
</svg>
