<svg width="19" height="17" viewBox="0 0 19 17" fill="none" xmlns="http://www.w3.org/2000/svg">
<path d="M13.7349 0C14.9678 0 16.1538 0.487281 17.0263 1.36163C17.8998 2.23414 18.388 3.41097 18.388 4.64296V11.9062C18.388 14.4713 16.3009 16.5492 13.7349 16.5492H4.65216C2.08612 16.5492 0 14.4713 0 11.9062V4.64296C0 2.07784 2.07692 0 4.65216 0H13.7349ZM14.7747 4.78087C14.5817 4.77076 14.3978 4.83604 14.259 4.96475L10.1134 8.27459C9.58014 8.71682 8.81612 8.71682 8.27459 8.27459L4.1373 4.96475C3.85136 4.75329 3.45602 4.78087 3.2179 5.02911C2.96966 5.27735 2.94208 5.67269 3.15262 5.94851L3.27306 6.06803L7.45632 9.3319C7.97119 9.73643 8.59546 9.95709 9.24915 9.95709C9.90101 9.95709 10.5363 9.73643 11.0503 9.3319L15.1977 6.01287L15.2712 5.93932C15.491 5.67269 15.491 5.28654 15.2611 5.01992C15.1333 4.88293 14.9577 4.79926 14.7747 4.78087Z" fill="#717274"/>
</svg>
