<svg width="21" height="21" viewBox="0 0 21 21" fill="none" xmlns="http://www.w3.org/2000/svg">
<path fill-rule="evenodd" clip-rule="evenodd" d="M9.8696 0C15.3117 0 19.7384 4.42666 19.7384 9.86878C19.7384 12.4364 18.753 14.7781 17.1406 16.5356L20.3134 19.7018C20.6103 19.9987 20.6114 20.4791 20.3144 20.776C20.1665 20.926 19.9709 21 19.7763 21C19.5827 21 19.3881 20.926 19.2392 20.7781L16.0281 17.5759C14.3389 18.9287 12.1971 19.7386 9.8696 19.7386C4.42748 19.7386 -0.000198364 15.3109 -0.000198364 9.86878C-0.000198364 4.42666 4.42748 0 9.8696 0ZM9.8696 1.52015C5.26559 1.52015 1.51995 5.26477 1.51995 9.86878C1.51995 14.4728 5.26559 18.2184 9.8696 18.2184C14.4726 18.2184 18.2182 14.4728 18.2182 9.86878C18.2182 5.26477 14.4726 1.52015 9.8696 1.52015Z" fill="#8F8F8F"/>
</svg>
