<svg width="16" height="19" viewBox="0 0 16 19" fill="none" xmlns="http://www.w3.org/2000/svg">
<path d="M7.79526 0C9.97202 0 11.8956 1.34423 12.6056 3.33545C12.6804 3.53649 12.6617 3.75581 12.5683 3.94771C12.4748 4.13962 12.3076 4.28583 12.1011 4.35071C11.6807 4.49601 11.2136 4.2776 11.0548 3.85725C10.5783 2.50387 9.27135 1.59919 7.81394 1.59919C5.90717 1.59919 4.36661 3.09877 4.35634 4.93464V6.1683L4.34513 6.17013H11.705C13.8725 6.17013 15.6297 7.88903 15.6297 10.0091V14.549C15.6297 16.669 13.8725 18.3879 11.705 18.3879H3.92379C1.7573 18.3879 0 16.669 0 14.549V10.0091C0 8.26553 1.19582 6.80981 2.82326 6.34193L2.72143 6.35381V4.95292C2.74011 2.2215 5.01124 0 7.79526 0ZM7.8102 10.4651C7.36177 10.4651 6.99742 10.8215 6.99742 11.2601V13.2888C6.99742 13.7366 7.36177 14.093 7.8102 14.093C8.26798 14.093 8.63233 13.7366 8.63233 13.2888V11.2601C8.63233 10.8215 8.26798 10.4651 7.8102 10.4651Z" fill="#717274"/>
</svg>
